<svg width="44" height="37" viewBox="0 0 44 37" fill="none" xmlns="http://www.w3.org/2000/svg">
<path d="M18.6463 33.8397C18.9057 33.2219 19.0294 32.5626 19.0101 31.9002C19.0496 30.0643 19.5801 28.266 20.5541 26.6659C21.5257 25.0685 22.9113 23.7195 24.5862 22.7402C25.2064 22.4325 25.7526 22.0116 26.1919 21.503C26.6311 20.9944 26.9543 20.4087 27.1417 19.7813C27.3292 19.1538 27.3771 18.4977 27.2825 17.8527C27.188 17.2076 26.9529 16.587 26.5916 16.0284C26.1089 15.2822 25.4142 14.6705 24.5862 14.2635C24.1115 13.9589 23.6555 13.6308 23.2208 13.2793L22.1315 12.2926C20.1354 10.3516 19.016 7.77874 19.0021 5.09983C19.0227 4.43725 18.8996 3.77755 18.6402 3.15966C18.3807 2.54177 17.9901 1.9782 17.4914 1.5022C16.9949 1.02673 16.3999 0.648671 15.742 0.390576C15.084 0.132482 14.3766 -0.000353183 13.662 7.05242e-07C12.9477 0.000932401 12.2409 0.134357 11.5834 0.39238C10.9259 0.650403 10.3309 1.02779 9.83386 1.5022C9.33601 1.97904 8.94598 2.54292 8.68658 3.16087C8.42719 3.77882 8.30364 4.43842 8.32316 5.10107C8.33481 5.96124 8.59095 6.80344 9.06584 7.54307C9.53911 8.28145 10.2148 8.89113 11.0246 9.31043C14.3033 11.2295 16.5847 14.8987 16.5847 18.5074C16.5766 21.163 15.4786 23.7167 13.5126 25.6521L11.0326 27.6896C10.2232 28.1077 9.54719 28.7169 9.07251 29.4569C8.5965 30.1957 8.34183 31.0393 8.32983 31.9002C8.30943 32.5627 8.43259 33.2224 8.69203 33.8402C8.95148 34.4581 9.34198 35.0217 9.84053 35.4978C10.3371 35.9732 10.9321 36.3511 11.59 36.6092C12.2479 36.8673 12.9553 37.0002 13.67 37C14.3844 36.9992 15.0915 36.8659 15.7492 36.6079C16.407 36.3498 17.0021 35.9724 17.4994 35.4978C17.997 35.0211 18.3869 34.4574 18.6463 33.8397Z" fill="#0C7075" fill-opacity="0.7"/>
<path d="M25.8889 7.844C25.3009 7.02753 24.9876 6.06677 24.9876 5.08503C24.9885 3.76996 25.5517 2.5086 26.5543 1.5762C27.426 0.764962 28.5758 0.259621 29.8064 0.146877C31.0369 0.0341327 32.2715 0.321014 33.2984 0.958301C34.178 1.50455 34.8628 2.27965 35.2665 3.1857C35.6701 4.09279 35.7755 5.08987 35.5694 6.05209C35.3633 7.01431 34.8548 7.89891 34.1078 8.5951C33.363 9.28938 32.4114 9.76261 31.3745 9.95438C30.3376 10.1462 29.2625 10.0478 28.2863 9.6718C27.3092 9.29545 26.4748 8.65932 25.8889 7.844Z" fill="#0C7075" fill-opacity="0.7"/>
<path d="M27.3623 27.7722C28.241 27.2271 29.2743 26.936 30.3303 26.936V26.9335C31.0323 26.9343 31.7272 27.0633 32.3752 27.313C33.0232 27.5628 33.6115 27.9284 34.1064 28.3889C34.981 29.2027 35.5251 30.2709 35.6465 31.4129C35.768 32.555 35.4595 33.7008 34.7731 34.6567C34.1872 35.4731 33.3523 36.1101 32.3744 36.4869C31.3982 36.8629 30.3231 36.9613 29.2862 36.7695C28.2493 36.5777 27.2977 36.1045 26.5529 35.4102C25.8056 34.7139 25.297 33.8291 25.0909 32.8666C24.8848 31.9042 24.9903 30.9068 25.3942 29.9996C25.7979 29.0936 26.4827 28.3185 27.3623 27.7722Z" fill="#0C7075" fill-opacity="0.7"/>
<path d="M43.1 15.7349C43.6865 16.551 43.9998 17.5102 44 18.4915C43.9991 19.8069 43.4359 21.0686 42.4333 22.0014C41.9383 22.4618 41.3499 22.8273 40.702 23.077C40.054 23.3267 39.3592 23.4558 38.6572 23.4568C37.6 23.4568 36.5668 23.1657 35.6891 22.6206C34.8096 22.0743 34.1247 21.2992 33.7211 20.3932C33.3171 19.4859 33.2116 18.4886 33.4177 17.5261C33.6239 16.5636 34.1324 15.6788 34.8798 14.9825C35.6247 14.288 36.5765 13.8146 37.6137 13.6228C38.6508 13.4311 39.7263 13.5296 40.7026 13.9058C41.6799 14.2825 42.5143 14.9191 43.1 15.7349Z" fill="#0C7075" fill-opacity="0.7"/>
<path d="M2.37374 14.3646C3.25243 13.8195 4.28445 13.5284 5.34181 13.5284C6.04362 13.5298 6.73825 13.6592 7.38596 13.9091C8.03368 14.159 8.62176 14.5246 9.11656 14.985C9.99073 15.7986 10.5345 16.8663 10.656 18.0079C10.7774 19.1494 10.4692 20.2947 9.78325 21.2503C9.19745 22.0661 8.36309 22.7026 7.38586 23.0794C6.40935 23.4535 5.3347 23.5509 4.29825 23.3592C3.2618 23.1675 2.31027 22.6954 1.56439 22.0027C0.817305 21.3065 0.308878 20.4219 0.10277 19.4597C-0.103338 18.4974 0.00203435 17.5003 0.405693 16.5933C0.809159 15.6868 1.49401 14.9113 2.37374 14.3646Z" fill="#0C7075" fill-opacity="0.7"/>
</svg>
